<svg width="238" height="32" fill="none" xmlns="http://www.w3.org/2000/svg"><g clip-path="url(#clip0)"><path d="M60.99 23.813H48.4L64.478 2.434a1.082 1.082 0 00-.219-1.512 1.06 1.06 0 00-.637-.213H40.36c-2.05 0-3.716 1.673-3.716 3.733s1.665 3.733 3.716 3.733h10.459l-16.14 21.39a1.07 1.07 0 00.856 1.724H60.99a3.733 3.733 0 003.521-3.923 3.727 3.727 0 00-3.52-3.537v-.017zM142.284.703a3.723 3.723 0 00-3.716 3.734v12.527L118.471.946a1.063 1.063 0 00-1.74.837v25.751c0 2.06 1.666 3.733 3.716 3.733 2.051 0 3.716-1.673 3.716-3.733v-12.52l20.097 16.028c.465.37 1.143.283 1.51-.184.15-.19.23-.422.23-.664V4.443c0-2.066-1.66-3.74-3.716-3.74zm-53.168 23.82c-8.5 0-14.864-4.501-14.864-8.529 0-4.027 6.358-8.528 14.864-8.528s14.864 4.5 14.864 8.528c0 4.028-6.34 8.528-14.864 8.528zm0-24.523C76.808 0 66.832 7.155 66.832 15.989c0 8.833 9.976 15.988 22.284 15.988 12.309 0 22.285-7.155 22.285-15.989C111.401 7.155 101.425 0 89.116 0zM15.938 24.528c-4.692.006-8.506-3.814-8.512-8.528-.005-4.714 3.797-8.545 8.49-8.551 4.692-.006 8.505 3.814 8.511 8.528v.011c0 4.715-3.802 8.534-8.489 8.54zm0-24.528C7.14-.006.006 7.155 0 15.989-.006 24.828 7.122 31.993 15.915 32c8.794.006 15.933-7.155 15.939-15.988v-.018C31.854 7.16 24.726 0 15.938 0z" fill="#005BFF"/><path d="M171.659 18.643l-4.262-3.272c-1.259-.987-1.877-1.737-1.877-2.827 0-1.258.82-2.043 2.726-2.043 1.599 0 3.372.577 4.804 1.397l1.6-3.37c-1.669-.848-3.886-1.598-6.306-1.598-4.192 0-6.681 2.244-6.681 5.752 0 2.452 1.224 4.19 3.274 5.787l4.054 3.203c1.703 1.327 2.523 2.314 2.523 3.64 0 1.599-1.224 2.862-3.782 2.862-2.316 0-4.602-1.055-6.132-1.938L160 29.57c1.877 1.194 4.666 2.21 7.703 2.21 4.533 0 7.634-2.314 7.634-6.67 0-2.724-1.224-4.599-3.678-6.468zm13.933-3.612c-5.041 0-8.038 3.64-8.038 8.406 0 4.974 3.205 8.344 8.212 8.344 3.886 0 5.965-2.147 7.12-3.745l-2.351-2.216c-.785 1.056-2.246 2.758-4.839 2.758-2.691 0-4.631-1.84-4.769-4.633h12.195v-.542c0-5.066-2.725-8.372-7.53-8.372zm-4.498 6.502c.41-2.279 2.044-3.439 4.291-3.439 2.384 0 3.984 1.258 4.122 3.44h-8.413zm15.262 9.74h3.338V7.443h-3.338v23.83zm7.767 0h3.337V7.443h-3.337v23.83zm33.832-16.208c-2.656 0-4.463 1.564-5.214 3.918h-.069v-3.439h-3.338v15.729h3.338v-6.982c0-3.744 1.738-5.314 5.006-5.314h.508V15.06h-.231v.006zm-19.211-.034c-5.042 0-8.038 3.64-8.038 8.406 0 4.974 3.204 8.344 8.211 8.344 3.886 0 5.965-2.147 7.12-3.745l-2.351-2.216c-.785 1.056-2.246 2.758-4.839 2.758-2.69 0-4.631-1.84-4.769-4.633h12.195v-.542c0-5.066-2.725-8.372-7.529-8.372zm-4.499 6.502c.41-2.279 2.044-3.439 4.291-3.439 2.385 0 3.984 1.258 4.123 3.44h-8.414z" fill="#001A34"/></g><defs><clipPath id="clip0"><path fill="#fff" d="M0 0h238v32H0z"/></clipPath></defs></svg>