<svg xmlns="http://www.w3.org/2000/svg" display="none">
    <symbol id="i-arrow-slider" viewBox="0 0 24 24">
        <path d="M14.707 6.293a1 1 0 0 1 0 1.414L10.414 12l4.293 4.293a1 1 0 0 1-1.414 1.414l-5-5a1 1 0 0 1 0-1.414l5-5a1 1 0 0 1 1.414 0Z"></path>
    </symbol>

    <symbol id="i-info" viewBox="0 0 24 24">
        <path d="M13 12a1 1 0 1 0-2 0v4a1 1 0 1 0 2 0v-4Zm-1-5a1 1 0 1 1 0 2 1 1 0 0 1 0-2Z"></path>
        <path d="M1 12C1 5.925 5.925 1 12 1s11 4.925 11 11-4.925 11-11 11S1 18.075 1 12Zm11-9a9 9 0 1 0 0 18 9 9 0 0 0 0-18Z"></path>
    </symbol>

    <symbol id="i-select" viewBox="0 0 16 16">
        <path d="M8 16c4.964 0 8-3.036 8-8s-3.036-8-8-8-8 3.036-8 8 3.036 8 8 8Zm4.184-9.15L7.74 11.296a.889.889 0 0 1-1.257 0L3.816 8.63a.889.889 0 1 1 1.257-1.26l2.038 2.04 3.816-3.816a.889.889 0 0 1 1.257 1.257Z"></path>
    </symbol>

    <symbol id="i-user" viewBox="0 0 24 24">
        <path d="M12 21c5.584 0 9-3.416 9-9s-3.416-9-9-9-9 3.416-9 9 3.416 9 9 9Zm0-15c1.8 0 3 1.2 3 3s-1.2 3-3 3-3-1.2-3-3 1.2-3 3-3Zm-2.812 7c.387.002.614.124.88.267.377.203.832.447 1.932.447 1.098 0 1.553-.245 1.93-.448.267-.143.494-.266.883-.266.624 0 2.187 1.786 2.187 2.5S15.427 18 11.995 18 7 16.214 7 15.5s1.563-2.502 2.188-2.5Z"></path>
    </symbol>

    <symbol id="i-message" viewBox="0 0 24 24">
        <path d="M3 11.5C3 5.5 4 4 10 4h4c6 0 7 1.5 7 7.5 0 5.836-1 6.5-7 6.5H8c-.692 1.025-1.822 2-3 2-2 0-2-5.5-2-8.5Zm5 .5a1 1 0 1 0 0-2 1 1 0 0 0 0 2Zm5-1a1 1 0 1 0-2 0 1 1 0 0 0 2 0Zm3 1a1 1 0 1 0 0-2 1 1 0 0 0 0 2Z"></path>
    </symbol>

    <symbol id="i-question" viewBox="0 0 24 24">
     <path d="M12 21c5.584 0 9-3.416 9-9s-3.416-9-9-9-9 3.416-9 9 3.416 9 9 9Zm-1-11a1 1 0 1 1-2 0c0-.649.16-1.404.67-2.015C10.204 7.342 11.01 7 12 7s1.795.342 2.33.985c.51.61.67 1.366.67 2.015 0 .99-.541 1.603-1 1.99a2.78 2.78 0 0 1-.316.216c-.32.2-.684.429-.684.794a1 1 0 1 1-2 0c0-1.257.875-1.909 1.342-2.257.489-.364.956-.873.452-1.478C12.705 9.158 12.51 9 12 9c-.664 0-1 .341-1 1Zm2 6a1 1 0 1 1-2 0 1 1 0 0 1 2 0Z"></path>
    </symbol>

    <symbol id="i-learn" viewBox="0 0 24 24">
        <path d="M2 8.5C2 6.812 9.5 4 12 4c2.1 0 7.729 1.985 9.476 3.62A1 1 0 0 1 22 8.5V12a1 1 0 1 1-2 0v-1.604C17.596 11.737 13.675 13 12 13 9.5 13 2 10.187 2 8.5Z"></path>
        <path d="M12 19c-5.568 0-7-1-7-6 0-.562.493-.764.993-.562 1.038.418 2.127.787 3.121 1.06 1.076.296 2.12.502 2.886.502.765 0 1.81-.206 2.886-.502a29.347 29.347 0 0 0 3.12-1.06c.501-.202.994 0 .994.562 0 5-1.432 6-7 6Zm9-3a1 1 0 1 0 0-2 1 1 0 0 0 0 2Z"></path>
    </symbol>

    <symbol id="i-mouthpiece" viewBox="0 0 24 24">
        <path d="M15 19c-1.255 0-2.42-.57-3.383-1.547C9.635 15.444 9 15 7 15s-4-1-4-4 2-4 4-4 2.634-.444 4.617-2.454C12.58 3.571 13.745 3 15 3c3.314 0 6 3.09 6 8s-2.686 8-6 8Zm0-2c2 0 4-2.564 4-6s-2-6-4-6-4 2.564-4 6 2 6 4 6Z"></path>
        <path d="M14 13c1.216 0 2-1.002 2-2s-.784-2-2-2c-.429 0-1 .667-1 2s.571 2 1 2Zm-7.857 4.006.938 2.181c.42.934.765 1.813 2.403 1.813C11 21 11 20.306 11 19.5V19c0-.642-.05-.81-.5-1.266-.51-.518-1.045-1.04-1.67-1.385C8.383 16.102 7.78 16 6.86 16c-1.017 0-.947.469-.717 1.006Z"></path>
    </symbol>

    <symbol id="i-arrow" viewBox="0 0 22 12">
		<path d="M0 12V8c2 0 3.651-.733 4.79-2.014L9.505.682A2.003 2.003 0 0111 0c.549 0 1.097.234 1.495.682l4.715 5.304C18.349 7.267 20 8 22 8v4H0z"></path>
    </symbol>

    <symbol id="i-footer-message" viewBox="0 0 24 24">
        <path d="M11 3h6a5 5 0 0 1 3 9 7 7 0 0 0-7-7h-3a1 1 0 1 0 0 2h3a5 5 0 0 1 0 10h-3a1 1 0 0 0-.707.293L7 19.586v-1.669a1 1 0 0 0-.835-.986 5.002 5.002 0 0 1-.618-9.717 1 1 0 0 0 .667-.667A5.003 5.003 0 0 1 11 3Zm8.529 11.529A7.002 7.002 0 0 0 17 1h-6a7.002 7.002 0 0 0-6.529 4.471A7.002 7.002 0 0 0 5 18.71V22a1 1 0 0 0 1.707.707L10.414 19H13a7.002 7.002 0 0 0 6.529-4.471Z"></path>
        <path d="M7 12a1 1 0 1 1-2 0 1 1 0 0 1 2 0Zm4 0a1 1 0 1 1-2 0 1 1 0 0 1 2 0Zm4 0a1 1 0 1 1-2 0 1 1 0 0 1 2 0Z"></path>
    </symbol>

    <symbol id="i-select-menu" viewBox="0 0 24 24">
        <path  d="M18.707 7.293a1 1 0 0 1 0 1.414l-8 8a1 1 0 0 1-1.414 0l-4-4a1 1 0 1 1 1.414-1.414L10 14.586l7.293-7.293a1 1 0 0 1 1.414 0Z"></path>
    </symbol>

    <symbol id="i-interval" viewBox="0 0 16 16">
        <path  d="M10.018 6.611C9.646 5.663 8.823 3.834 8 3.834c-.823 0-1.646 1.829-2.018 2.777-.204.522-.22.517-.787 0-.532-.484-1.284-1.11-1.623-1.11-.617 0-.636 2.193-.51 3.332.303 2.722 1.05 3.334 4.938 3.334 3.889 0 4.635-.614 4.938-3.334.126-1.14.107-3.333-.51-3.333-.337 0-1.115.651-1.65 1.14-.556.506-.556.494-.76-.029Z"></path>
    </symbol>

    <symbol id="i-help" viewBox="0 0 24 24">
        <path fill-rule="evenodd" clip-rule="evenodd" d="M22.957 22.293a1 1 0 01-1.414 1.414l-2.344-2.344a.5.5 0 00-.609-.077 5.541 5.541 0 111.946-1.946.5.5 0 00.077.609l2.344 2.344zm-10.44-4.412a3.53 3.53 0 106.522-2.703 3.53 3.53 0 00-6.522 2.703z" fill="#8D95A5"></path><path fill-rule="evenodd" clip-rule="evenodd" d="M15.026 23.452a.25.25 0 01.224.248v.05A.25.25 0 0115 24H3.75a3 3 0 01-3-3V3a3 3 0 013-3h12.5a2 2 0 012 2v1.551a.5.5 0 00.4.489A2 2 0 0120.25 6v4.626a.25.25 0 01-.397.202 7 7 0 10-4.827 12.624zM3.75 2a1 1 0 000 2H16a.25.25 0 00.25-.25v-1.5A.25.25 0 0016 2H3.75z"></path>
    </symbol>

    <symbol id="i-email" viewBox="0 0 24 16" >
        <path d="M11.114 10.556c.489.487 1.28.487 1.768 0L22.568.87a.5.5 0 00-.281-.849A1.965 1.965 0 0022 0H2c-.097 0-.193.007-.29.021a.5.5 0 00-.28.849l9.684 9.686z"></path>
        <path d="M23.888 1.832a.182.182 0 00-.2.039l-6.2 6.2a.251.251 0 000 .354l5.043 5.043a.75.75 0 11-1.06 1.06l-5.043-5.042a.25.25 0 00-.354 0l-2.129 2.129a2.75 2.75 0 01-3.888 0L7.926 9.488a.251.251 0 00-.354 0L2.529 14.53a.75.75 0 01-1.06-1.061l5.043-5.043a.251.251 0 000-.354l-6.2-6.2a.18.18 0 00-.2-.04A.182.182 0 000 2v12a2 2 0 002 2h20a2 2 0 002-2V2a.181.181 0 00-.112-.168z"></path>
    </symbol>

    <symbol id="i-ozon" viewBox="0 0 25 24" fill="none">
        <path fill="#216BFF" d="M.393 0h24v24h-24z"></path>
        <mask id="ozon--sprite_a" maskUnits="userSpaceOnUse" x="0" y="0" width="25" height="24">
            <path fill-rule="evenodd" clip-rule="evenodd" d="M.393 0h24v24h-24V0z" fill="#fff"></path>
        </mask>
        <g mask="url(#ozon--sprite_a)" fill-rule="evenodd" clip-rule="evenodd" fill="#fff">
            <path d="M2.023 16.763c-.946.39-2.002-.24-2.148-1.282-.1-.71.291-1.41.936-1.677.945-.391 2.002.24 2.148 1.282.099.71-.292 1.41-.936 1.677zM.932 12.325c-1.828.295-2.901 2.22-2.234 4.004.493 1.32 1.852 2.131 3.204 1.913 1.828-.295 2.901-2.22 2.234-4.004-.493-1.32-1.852-2.132-3.204-1.913zm4.085-1.04a.695.695 0 00-.432.986c.148.3.499.439.817.354l1.85-.496-1.845 4.63a.2.2 0 00.234.267l4.515-1.21a.705.705 0 00.531-.714.695.695 0 00-.867-.639l-2.253.604 1.843-4.626c.061-.153-.078-.312-.235-.27l-4.158 1.114zm18.031-4.86c-.291.149-.426.496-.34.815l.6 2.242-4.383-1.923a.199.199 0 00-.27.235l1.24 4.627c.085.32.375.553.702.536a.693.693 0 00.636-.875l-.606-2.26 4.383 1.922a.198.198 0 00.27-.235l-1.244-4.644a.693.693 0 00-.988-.44zm-9.413 2.401c-2.195.588-3.627 2.361-3.198 3.961.428 1.6 2.555 2.42 4.75 1.831 2.196-.588 3.628-2.361 3.2-3.961-.43-1.6-2.556-2.42-4.752-1.831zm.363 1.351c1.516-.406 2.868.106 3.063.835.196.73-.72 1.848-2.236 2.255-1.516.406-2.868-.106-3.063-.835-.196-.729.719-1.848 2.236-2.255z"></path>
        </g>
    </symbol>

    <symbol id="i-close" viewBox="0 0 24 24">
        <path  d="m12 10.586 6.293-6.295a1 1 0 0 1 1.414 1.414L13.414 12l6.293 6.294a1 1 0 1 1-1.414 1.415L12 13.414 5.707 19.71a1 1 0 0 1-1.414-1.415L10.586 12 4.293 5.705a1 1 0 1 1 1.414-1.414L12 10.586Z"></path>
    </symbol>

    <symbol id="i-setting" viewBox="0 0 24 24">
        <path d="M8.78 6.422c-.392-.121-.785-.234-1.179-.348-1.755-.507-2.204-.637-3.395 1.426-1.191 2.063-.854 2.387.463 3.653.295.284.59.569.89.847-.3.278-.595.563-.89.847-1.317 1.265-1.654 1.59-.463 3.653 1.19 2.063 1.64 1.933 3.395 1.426.393-.114.789-.227 1.179-.348.09.399.19.797.288 1.195C9.506 20.546 9.618 21 12 21c2.382 0 2.495-.454 2.932-2.227.099-.398.198-.796.288-1.195.39.121.783.233 1.176.347 1.755.507 2.207.638 3.398-1.425 1.191-2.063.854-2.387-.463-3.653-.295-.284-.59-.569-.89-.847.3-.278.595-.563.89-.847 1.317-1.266 1.654-1.59.463-3.653-1.19-2.063-1.64-1.933-3.395-1.426-.394.114-.787.227-1.179.348-.09-.4-.19-.797-.288-1.195C14.494 3.454 14.382 3 12 3c-2.382 0-2.495.455-2.933 2.229-.098.397-.197.794-.287 1.193ZM12 15a3 3 0 1 1 0-6 3 3 0 0 1 0 6Z"></path>
    </symbol>

    <symbol id="i-app" viewBox="0 0 24 24">
        <path d="M11 3.002c-4 0-4.998 0-4.998 4.998-.003.982-.002 4.134 0 6.26V16c0 4.998.998 5 4.998 5h2c4 0 4.98-.002 4.998-5 .004-1.064.003-4.677.002-6.77V8c0-4.998-1-4.998-5-4.998h-2ZM11 7a1 1 0 1 1 0-2h2a1 1 0 1 1 0 2h-2ZM9.5 19h5a.5.5 0 0 1 0 1h-5a.5.5 0 0 1 0-1Z"></path>
    </symbol>

    <symbol id="i-lang" viewBox="0 0 24 24">
        <path d="M5.92 8.606c.214.5.489 1.032.821 1.582.43.711.614.713 1.352.026a42.672 42.672 0 0 0 2.121-2.121c.687-.738.685-.922-.027-1.352a12.938 12.938 0 0 0-1.58-.822c-.828-.354-1.522-.521-2.05-.536-.524-.014-.788.12-.921.253s-.267.397-.253.922c.015.527.182 1.221.536 2.048Zm7.03-5.556a9.018 9.018 0 0 0-4.83.827c-.623.297-.608.607-.08.769 1.032.314 1.999.821 2.91 1.39.678.424.702.439 1.222-.228a21.59 21.59 0 0 0 1.224-1.728c.502-.789.394-.941-.447-1.03Zm1.878 6.122a25.383 25.383 0 0 0-1.519-1.399c-.423-.36-.631-.537-.651-.733-.02-.19.139-.4.45-.811a24.08 24.08 0 0 0 1.132-1.612c.594-.934.743-1.169 1.64-.74a8.985 8.985 0 0 1 2.484 1.759 8.983 8.983 0 0 1 1.76 2.483c.428.898.193 1.047-.74 1.641-.555.353-1.09.735-1.613 1.131-.412.313-.62.47-.811.451-.196-.02-.373-.228-.733-.651a25.385 25.385 0 0 0-1.399-1.52Zm.648 2.18a23.672 23.672 0 0 0-2.828-2.828c-.767-.648-1.355-.06-2.062.648l-1.414 1.414c-.708.707-1.296 1.295-.649 2.062a23.7 23.7 0 0 0 2.829 2.829c.767.647 1.343.071 2.04-.626l1.46-1.46c.696-.696 1.272-1.272.624-2.04ZM3.05 12.95a9.018 9.018 0 0 1 .827-4.83c.274-.574.608-.608.769-.08.314 1.032.822 1.999 1.39 2.91.424.678.439.702-.228 1.222a21.59 21.59 0 0 1-1.728 1.224c-.789.502-.941.394-1.03-.447Zm1.565 1.29a24.12 24.12 0 0 0 1.615-1.13c.412-.313.62-.47.811-.451.196.02.374.228.733.651a25.77 25.77 0 0 0 1.399 1.52c.487.486.994.952 1.519 1.398.423.36.631.537.651.733.02.19-.139.4-.45.811-.397.524-.78 1.06-1.133 1.614-.593.933-.742 1.167-1.64.738a8.983 8.983 0 0 1-2.483-1.759 8.985 8.985 0 0 1-1.76-2.483c-.428-.898-.194-1.046.74-1.64Zm10.779 3.84c-.5-.214-1.032-.489-1.582-.821-.711-.43-.713-.614-.026-1.352a42.74 42.74 0 0 1 2.121-2.121c.738-.687.921-.685 1.352.027.332.55.607 1.08.822 1.58.354.828.521 1.522.536 2.05.014.524-.12.787-.253.921-.134.133-.397.267-.922.253-.527-.015-1.221-.182-2.048-.536Zm5.556-7.03a9.018 9.018 0 0 1-.827 4.83c-.297.623-.608.608-.769.08-.314-1.032-.822-1.999-1.39-2.91-.424-.678-.439-.702.228-1.222a21.59 21.59 0 0 1 1.728-1.224c.789-.502.941-.394 1.03.447Zm-5.07 9.073a9.018 9.018 0 0 1-4.83.827c-.84-.089-.948-.241-.446-1.03a21.59 21.59 0 0 1 1.224-1.728c.52-.667.544-.652 1.222-.229.911.57 1.878 1.076 2.91 1.391.528.162.494.495-.08.77Z"></path>
    </symbol>

    <symbol id="i-exit" viewBox="0 0 24 24">
        <path d="M18.818 4.248C16.575 3.325 12.848 2.103 12.5 4c0 0-.074.295-.165 1h-1.4c-.887 0-1.651 0-2.263.082-.655.088-1.284.287-1.793.797-.51.51-.709 1.138-.797 1.793C6 8.284 6 9.048 6 9.934V11H4.414l.293-.293a1 1 0 1 0-1.414-1.414l-2 2a1 1 0 0 0 0 1.414l2 2a1 1 0 0 0 1.414-1.414L4.414 13H9a1 1 0 1 0 0-2H8v-1c0-.971.002-1.599.064-2.061.059-.434.153-.57.229-.646.076-.076.212-.17.646-.229C9.4 7.002 10.029 7 11 7h1.146A74.61 74.61 0 0 0 12 12c0 2.21.05 3.825.118 5H9a1 1 0 0 1-1-1v-1a1 1 0 1 0-2 0v1a3 3 0 0 0 3 3h3.294c.109.822.206 1.015.206 1 .347 1.896 4.071.676 6.314-.246.78-.321 1.17-.481 1.5-.923.33-.442.373-.848.457-1.658.118-1.13.229-2.823.229-5.18 0-2.354-.111-4.042-.229-5.17-.084-.808-.126-1.211-.456-1.653-.33-.442-.72-.602-1.497-.922Z"></path>
    </symbol>

    <symbol id="i-user-arrow" viewBox="0 0 24 24">
        <path d="m10 8 5 4-5 4V8Z"></path>
    </symbol>

    <symbol id="i-rus" viewBox="0 0 24 24" fill="none">
        <rect width="19" height="13" x="2.5" y="5.5" stroke="#001A34" stroke-opacity=".16" opacity=".75" rx="2.5"></rect>
        <path fill="white" d="M3 8a2 2 0 0 1 2-2h14a2 2 0 0 1 2 2v2H3V8Z"></path>
        <path fill="#0055CC" d="M3 10h18v4H3z"></path>
        <path fill="#F0121F" d="M3 14h18v2a2 2 0 0 1-2 2H5a2 2 0 0 1-2-2v-2Z"></path>
    </symbol>

    <symbol id="i-eng" viewBox="0 0 24 24" fill="none">
        <rect width="19" height="13" x="2.5" y="5.5" stroke="#001A34" stroke-opacity=".16" opacity=".75" rx="2.5"></rect>
        <path fill="#0055CC" d="M3 8a2 2 0 0 1 2-2h14a2 2 0 0 1 2 2v8a2 2 0 0 1-2 2H5a2 2 0 0 1-2-2V8Z"></path>
        <path fill="white" d="M3.042 7.59A2 2 0 0 1 5 6h.344L12 10.438 18.656 6H19a2 2 0 0 1 1.958 1.59L14.344 12l6.614 4.41A2 2 0 0 1 19 18h-.344L12 13.562 5.344 18H5a2 2 0 0 1-1.958-1.59L9.656 12 3.042 7.59Z"></path>
        <path fill="white" fill-rule="evenodd" d="M10 10V6h4v4h7v4h-7v4h-4v-4H3v-4h7Z" clip-rule="evenodd"></path>
        <path fill="#F0121F" fill-rule="evenodd" d="M11 11V6h2v5h8v2h-8v5h-2v-5H3v-2h8Z" clip-rule="evenodd"></path>
        <path fill="#F0121F" d="M19.808 6.17 12 11.375 4.192 6.17c-.339.15-.628.39-.837.692L11.062 12l-7.707 5.138c.209.301.498.542.837.692L12 12.625l7.808 5.205c.338-.15.628-.39.837-.692L12.937 12l7.708-5.138a2.008 2.008 0 0 0-.837-.692Z"></path>
    </symbol>

    <symbol id="i-china" viewBox="0 0 24 24" fill="none">
        <rect width="19" height="13" x="2.5" y="5.5" stroke="#001A34" stroke-opacity=".16" opacity=".75" rx="2.5"></rect>
        <path fill="#F0121F" d="M3 8a2 2 0 0 1 2-2h14a2 2 0 0 1 2 2v8a2 2 0 0 1-2 2H5a2 2 0 0 1-2-2V8Z"></path>
        <path fill="#FFD018" d="m6.5 8 .773 1.646L9 9.91l-1.25 1.28.295 1.81-1.545-.854L4.955 13l.295-1.809L4 9.91l1.727-.264L6.5 8Zm3.5-.5a.5.5 0 1 1-1 0 .5.5 0 0 1 1 0Zm0 6a.5.5 0 1 1-1 0 .5.5 0 0 1 1 0Zm2-2a.5.5 0 1 1-1 0 .5.5 0 0 1 1 0Zm0-2a.5.5 0 1 1-1 0 .5.5 0 0 1 1 0Z"></path>
    </symbol>

    <symbol id="i-turkiye" viewBox="0 0 24 24" fill="none">
        <rect width="19" height="13" x="2.5" y="5.5" stroke="#001A34" stroke-opacity=".16" opacity=".75" rx="2.5"></rect>
        <path fill="#F0121F" d="M3 8a2 2 0 0 1 2-2h14a2 2 0 0 1 2 2v8a2 2 0 0 1-2 2H5a2 2 0 0 1-2-2V8Z"></path>
        <path fill="white" d="M10.62 9.63c.648 0 1.232.286 1.644.744C11.754 9.547 10.868 9 9.86 9 8.28 9 7 10.343 7 12s1.28 3 2.86 3c1.008 0 1.895-.547 2.404-1.374a2.206 2.206 0 0 1-1.645.744c-1.248 0-2.26-1.06-2.26-2.37s1.012-2.37 2.26-2.37Z"></path>
        <path fill="white" d="m13.295 11.51-.435-.621.004.77-.697.243.7.234.004.77.429-.626.7.234-.436-.621.429-.626-.698.242Z"></path>
    </symbol>

    <symbol id="i-download" viewBox="0 0 24 24" >
        <path d="M19 11h-4V4H9v7H5l7 7 7-7zM5 19v2h14v-2H5z"></path>
    </symbol>

    <symbol id="i-delete">
        <path d="M6 19c0 1.1.9 2 2 2h8c1.1 0 2-.9 2-2V7H6v12zM19 4h-3.5l-1-1h-5l-1 1H5v2h14V4z"></path>
    </symbol>

    <symbol id="i-paginate-arrow" viewBox="0 0 24 24" >
        <path d="M17 19V5L6 12z"></path>
    </symbol>

    <symbol id="i-products-arrow" viewBox="0 0 24 24">
        <path d="M20 12l-1.41-1.41L13 16.17V4h-2v12.17l-5.58-5.59L4 12l8 8z"></path>
    </symbol>

    <symbol  id="i-visibility" viewBox="0 0 24 24">
        <path d="M12 4.5C7 4.5 2.73 7.61 1 12c1.73 4.39 6 7.5 11 7.5s9.27-3.11 11-7.5c-1.73-4.39-6-7.5-11-7.5zM12 17c-2.76 0-5-2.24-5-5s2.24-5 5-5 5 2.24 5 5-2.24 5-5 5zm0-8c-1.66 0-3 1.34-3 3s1.34 3 3 3 3-1.34 3-3-1.34-3-3-3z"></path>
    </symbol>

    <symbol  id="i-index" viewBox="0 0 16 16" >
        <path d="M1 3a1 1 0 0 1 1-1h12a1 1 0 0 1 1 1v2a1 1 0 0 1-.22.625L11 10.35V13a1 1 0 0 1-.758.97l-4 1A1 1 0 0 1 5 14v-3.65L1.22 5.626A1 1 0 0 1 1 5V3Zm2 1v.65l3.78 4.725A1 1 0 0 1 7 10v2.72l2-.5V10a1 1 0 0 1 .22-.625L11.12 7H8a1 1 0 0 1 0-2h4.72l.28-.35V4H3Z"></path>
    </symbol>

    <symbol id="i-setting-table" viewBox="0 0 24 24" >
        <path fill-rule="evenodd" d="M8 11a4.002 4.002 0 003.874-3H22a1 1 0 100-2H11.874a4.002 4.002 0 00-7.748 0H2a1 1 0 000 2h2.126C4.57 9.725 6.136 11 8 11zm11.874 7a4.002 4.002 0 01-7.748 0H2a1 1 0 110-2h10.126a4.002 4.002 0 017.748 0H22a1 1 0 110 2h-2.126zM16 19a2 2 0 100-4 2 2 0 000 4zM10 7a2 2 0 11-4 0 2 2 0 014 0z" clip-rule="evenodd"></path>
    </symbol>

    <symbol id="i-kebab" viewBox="0 0 408 408">
        <path d="M204 102c28.05 0 51-22.95 51-51S232.05 0 204 0s-51 22.95-51 51 22.95 51 51 51zm0 51c-28.05 0-51 22.95-51 51s22.95 51 51 51 51-22.95 51-51-22.95-51-51-51zm0 153c-28.05 0-51 22.95-51 51s22.95 51 51 51 51-22.95 51-51-22.95-51-51-51z"></path>
    </symbol>

    <symbol id="i-close-table" viewBox="0 0 24 24">
        <path fill-rule="evenodd" d="M19 6.41L17.59 5 12 10.59 6.41 5 5 6.41 10.59 12 5 17.59 6.41 19 12 13.41 17.59 19 19 17.59 13.41 12z"></path>
    </symbol>

    <symbol id="i-reserved" viewBox="0 0 24 24">
        <path d="M12 1L3 5v6c0 5.55 3.84 10.74 9 12 5.16-1.26 9-6.45 9-12V5l-9-4zm-2 16l-4-4 1.41-1.41L10 14.17l6.59-6.59L18 9l-8 8z"></path>
    </symbol>

    <symbol id="i-discounted" viewBox="0 0 20 20">
        <path fill-rule="evenodd" clip-rule="evenodd" d="M15.856 7.022l-1.189 1.213a.41.41 0 01-.262.118 2.433 2.433 0 00-1.97 1.294l-.98 1.866-4.607 4.702a1.64 1.64 0 01-1.171.495h-.01a1.64 1.64 0 01-1.167-.482L.486 12.212a1.667 1.667 0 010-2.35L9.48.874a3.275 3.275 0 012-.833l3.54-.004a1.662 1.662 0 011.655 1.66v3.32a3.312 3.312 0 01-.819 2.006zm-3.748-.76a1.66 1.66 0 001.66-1.66h.004a1.66 1.66 0 00-1.664-1.661 1.66 1.66 0 100 3.322zM15.667 10.226a1.203 1.203 0 00-2.127 0l-4.199 8c-.192.369-.177.812.04 1.166.22.355.607.57 1.024.57h8.397c.417 0 .804-.215 1.024-.57.217-.354.232-.797.04-1.166l-4.199-8zm-1.063 2.057a.623.623 0 01.622.624v2.49a.622.622 0 11-1.245 0v-2.49a.623.623 0 01.623-.624zm.833 5.401a.833.833 0 10-1.666 0 .833.833 0 001.666 0z"></path>
    </symbol>

    <symbol id="i-chevron" viewBox="0 0 24 24">
        <path d="M10 6L8.59 7.41 13.17 12l-4.58 4.59L10 18l6-6z"></path>
    </symbol>

</svg>