<svg xmlns="http://www.w3.org/2000/svg" display="none">
    <symbol id="i-arrow-slider" viewBox="0 0 24 24">
        <path d="M14.707 6.293a1 1 0 0 1 0 1.414L10.414 12l4.293 4.293a1 1 0 0 1-1.414 1.414l-5-5a1 1 0 0 1 0-1.414l5-5a1 1 0 0 1 1.414 0Z"></path>
    </symbol>

    <symbol id="i-info" viewBox="0 0 24 24">
        <path d="M13 12a1 1 0 1 0-2 0v4a1 1 0 1 0 2 0v-4Zm-1-5a1 1 0 1 1 0 2 1 1 0 0 1 0-2Z"></path>
        <path d="M1 12C1 5.925 5.925 1 12 1s11 4.925 11 11-4.925 11-11 11S1 18.075 1 12Zm11-9a9 9 0 1 0 0 18 9 9 0 0 0 0-18Z"></path>
    </symbol>

    <symbol id="i-select" viewBox="0 0 16 16">
        <path d="M8 16c4.964 0 8-3.036 8-8s-3.036-8-8-8-8 3.036-8 8 3.036 8 8 8Zm4.184-9.15L7.74 11.296a.889.889 0 0 1-1.257 0L3.816 8.63a.889.889 0 1 1 1.257-1.26l2.038 2.04 3.816-3.816a.889.889 0 0 1 1.257 1.257Z"></path>
    </symbol>

    <symbol id="i-user" viewBox="0 0 24 24">
        <path d="M12 21c5.584 0 9-3.416 9-9s-3.416-9-9-9-9 3.416-9 9 3.416 9 9 9Zm0-15c1.8 0 3 1.2 3 3s-1.2 3-3 3-3-1.2-3-3 1.2-3 3-3Zm-2.812 7c.387.002.614.124.88.267.377.203.832.447 1.932.447 1.098 0 1.553-.245 1.93-.448.267-.143.494-.266.883-.266.624 0 2.187 1.786 2.187 2.5S15.427 18 11.995 18 7 16.214 7 15.5s1.563-2.502 2.188-2.5Z"></path>
    </symbol>

    <symbol id="i-message" viewBox="0 0 24 24">
        <path d="M3 11.5C3 5.5 4 4 10 4h4c6 0 7 1.5 7 7.5 0 5.836-1 6.5-7 6.5H8c-.692 1.025-1.822 2-3 2-2 0-2-5.5-2-8.5Zm5 .5a1 1 0 1 0 0-2 1 1 0 0 0 0 2Zm5-1a1 1 0 1 0-2 0 1 1 0 0 0 2 0Zm3 1a1 1 0 1 0 0-2 1 1 0 0 0 0 2Z"></path>
    </symbol>

    <symbol id="i-question" viewBox="0 0 24 24">
     <path d="M12 21c5.584 0 9-3.416 9-9s-3.416-9-9-9-9 3.416-9 9 3.416 9 9 9Zm-1-11a1 1 0 1 1-2 0c0-.649.16-1.404.67-2.015C10.204 7.342 11.01 7 12 7s1.795.342 2.33.985c.51.61.67 1.366.67 2.015 0 .99-.541 1.603-1 1.99a2.78 2.78 0 0 1-.316.216c-.32.2-.684.429-.684.794a1 1 0 1 1-2 0c0-1.257.875-1.909 1.342-2.257.489-.364.956-.873.452-1.478C12.705 9.158 12.51 9 12 9c-.664 0-1 .341-1 1Zm2 6a1 1 0 1 1-2 0 1 1 0 0 1 2 0Z"></path>
    </symbol>

    <symbol id="i-learn" viewBox="0 0 24 24">
        <path d="M2 8.5C2 6.812 9.5 4 12 4c2.1 0 7.729 1.985 9.476 3.62A1 1 0 0 1 22 8.5V12a1 1 0 1 1-2 0v-1.604C17.596 11.737 13.675 13 12 13 9.5 13 2 10.187 2 8.5Z"></path>
        <path d="M12 19c-5.568 0-7-1-7-6 0-.562.493-.764.993-.562 1.038.418 2.127.787 3.121 1.06 1.076.296 2.12.502 2.886.502.765 0 1.81-.206 2.886-.502a29.347 29.347 0 0 0 3.12-1.06c.501-.202.994 0 .994.562 0 5-1.432 6-7 6Zm9-3a1 1 0 1 0 0-2 1 1 0 0 0 0 2Z"></path>
    </symbol>

    <symbol id="i-mouthpiece" viewBox="0 0 24 24">
        <path d="M15 19c-1.255 0-2.42-.57-3.383-1.547C9.635 15.444 9 15 7 15s-4-1-4-4 2-4 4-4 2.634-.444 4.617-2.454C12.58 3.571 13.745 3 15 3c3.314 0 6 3.09 6 8s-2.686 8-6 8Zm0-2c2 0 4-2.564 4-6s-2-6-4-6-4 2.564-4 6 2 6 4 6Z"></path>
        <path d="M14 13c1.216 0 2-1.002 2-2s-.784-2-2-2c-.429 0-1 .667-1 2s.571 2 1 2Zm-7.857 4.006.938 2.181c.42.934.765 1.813 2.403 1.813C11 21 11 20.306 11 19.5V19c0-.642-.05-.81-.5-1.266-.51-.518-1.045-1.04-1.67-1.385C8.383 16.102 7.78 16 6.86 16c-1.017 0-.947.469-.717 1.006Z"></path>
    </symbol>

    <symbol id="i-arrow" viewBox="0 0 22 12">
		<path d="M0 12V8c2 0 3.651-.733 4.79-2.014L9.505.682A2.003 2.003 0 0111 0c.549 0 1.097.234 1.495.682l4.715 5.304C18.349 7.267 20 8 22 8v4H0z"></path>
    </symbol>

    <symbol id="i-footer-message" viewBox="0 0 24 24">
        <path d="M11 3h6a5 5 0 0 1 3 9 7 7 0 0 0-7-7h-3a1 1 0 1 0 0 2h3a5 5 0 0 1 0 10h-3a1 1 0 0 0-.707.293L7 19.586v-1.669a1 1 0 0 0-.835-.986 5.002 5.002 0 0 1-.618-9.717 1 1 0 0 0 .667-.667A5.003 5.003 0 0 1 11 3Zm8.529 11.529A7.002 7.002 0 0 0 17 1h-6a7.002 7.002 0 0 0-6.529 4.471A7.002 7.002 0 0 0 5 18.71V22a1 1 0 0 0 1.707.707L10.414 19H13a7.002 7.002 0 0 0 6.529-4.471Z"></path>
        <path d="M7 12a1 1 0 1 1-2 0 1 1 0 0 1 2 0Zm4 0a1 1 0 1 1-2 0 1 1 0 0 1 2 0Zm4 0a1 1 0 1 1-2 0 1 1 0 0 1 2 0Z"></path>
    </symbol>

    <symbol id="i-select-menu" viewBox="0 0 24 24">
        <path  d="M18.707 7.293a1 1 0 0 1 0 1.414l-8 8a1 1 0 0 1-1.414 0l-4-4a1 1 0 1 1 1.414-1.414L10 14.586l7.293-7.293a1 1 0 0 1 1.414 0Z"></path>
    </symbol>

    <symbol id="i-interval" viewBox="0 0 16 16">
        <path  d="M10.018 6.611C9.646 5.663 8.823 3.834 8 3.834c-.823 0-1.646 1.829-2.018 2.777-.204.522-.22.517-.787 0-.532-.484-1.284-1.11-1.623-1.11-.617 0-.636 2.193-.51 3.332.303 2.722 1.05 3.334 4.938 3.334 3.889 0 4.635-.614 4.938-3.334.126-1.14.107-3.333-.51-3.333-.337 0-1.115.651-1.65 1.14-.556.506-.556.494-.76-.029Z"></path>
    </symbol>

    <symbol id="i-help" viewBox="0 0 24 24">
        <path fill-rule="evenodd" clip-rule="evenodd" d="M22.957 22.293a1 1 0 01-1.414 1.414l-2.344-2.344a.5.5 0 00-.609-.077 5.541 5.541 0 111.946-1.946.5.5 0 00.077.609l2.344 2.344zm-10.44-4.412a3.53 3.53 0 106.522-2.703 3.53 3.53 0 00-6.522 2.703z" fill="#8D95A5"></path><path fill-rule="evenodd" clip-rule="evenodd" d="M15.026 23.452a.25.25 0 01.224.248v.05A.25.25 0 0115 24H3.75a3 3 0 01-3-3V3a3 3 0 013-3h12.5a2 2 0 012 2v1.551a.5.5 0 00.4.489A2 2 0 0120.25 6v4.626a.25.25 0 01-.397.202 7 7 0 10-4.827 12.624zM3.75 2a1 1 0 000 2H16a.25.25 0 00.25-.25v-1.5A.25.25 0 0016 2H3.75z"></path>
    </symbol>

    <symbol id="i-email" viewBox="0 0 24 16" >
        <path d="M11.114 10.556c.489.487 1.28.487 1.768 0L22.568.87a.5.5 0 00-.281-.849A1.965 1.965 0 0022 0H2c-.097 0-.193.007-.29.021a.5.5 0 00-.28.849l9.684 9.686z"></path>
        <path d="M23.888 1.832a.182.182 0 00-.2.039l-6.2 6.2a.251.251 0 000 .354l5.043 5.043a.75.75 0 11-1.06 1.06l-5.043-5.042a.25.25 0 00-.354 0l-2.129 2.129a2.75 2.75 0 01-3.888 0L7.926 9.488a.251.251 0 00-.354 0L2.529 14.53a.75.75 0 01-1.06-1.061l5.043-5.043a.251.251 0 000-.354l-6.2-6.2a.18.18 0 00-.2-.04A.182.182 0 000 2v12a2 2 0 002 2h20a2 2 0 002-2V2a.181.181 0 00-.112-.168z"></path>
    </symbol>

    <symbol id="i-ozon" viewBox="0 0 25 24" fill="none">
        <path fill="#216BFF" d="M.393 0h24v24h-24z"></path>
        <mask id="ozon--sprite_a" maskUnits="userSpaceOnUse" x="0" y="0" width="25" height="24">
            <path fill-rule="evenodd" clip-rule="evenodd" d="M.393 0h24v24h-24V0z" fill="#fff"></path>
        </mask>
        <g mask="url(#ozon--sprite_a)" fill-rule="evenodd" clip-rule="evenodd" fill="#fff">
            <path d="M2.023 16.763c-.946.39-2.002-.24-2.148-1.282-.1-.71.291-1.41.936-1.677.945-.391 2.002.24 2.148 1.282.099.71-.292 1.41-.936 1.677zM.932 12.325c-1.828.295-2.901 2.22-2.234 4.004.493 1.32 1.852 2.131 3.204 1.913 1.828-.295 2.901-2.22 2.234-4.004-.493-1.32-1.852-2.132-3.204-1.913zm4.085-1.04a.695.695 0 00-.432.986c.148.3.499.439.817.354l1.85-.496-1.845 4.63a.2.2 0 00.234.267l4.515-1.21a.705.705 0 00.531-.714.695.695 0 00-.867-.639l-2.253.604 1.843-4.626c.061-.153-.078-.312-.235-.27l-4.158 1.114zm18.031-4.86c-.291.149-.426.496-.34.815l.6 2.242-4.383-1.923a.199.199 0 00-.27.235l1.24 4.627c.085.32.375.553.702.536a.693.693 0 00.636-.875l-.606-2.26 4.383 1.922a.198.198 0 00.27-.235l-1.244-4.644a.693.693 0 00-.988-.44zm-9.413 2.401c-2.195.588-3.627 2.361-3.198 3.961.428 1.6 2.555 2.42 4.75 1.831 2.196-.588 3.628-2.361 3.2-3.961-.43-1.6-2.556-2.42-4.752-1.831zm.363 1.351c1.516-.406 2.868.106 3.063.835.196.73-.72 1.848-2.236 2.255-1.516.406-2.868-.106-3.063-.835-.196-.729.719-1.848 2.236-2.255z"></path>
        </g>
    </symbol>

    <symbol id="i-close" viewBox="0 0 24 24">
        <path  d="m12 10.586 6.293-6.295a1 1 0 0 1 1.414 1.414L13.414 12l6.293 6.294a1 1 0 1 1-1.414 1.415L12 13.414 5.707 19.71a1 1 0 0 1-1.414-1.415L10.586 12 4.293 5.705a1 1 0 1 1 1.414-1.414L12 10.586Z"></path>
    </symbol>

</svg>